<mxfile host="app.diagrams.net" modified="2024-03-27T18:35:01.962Z" agent="Mozilla/5.0 (X11; Linux x86_64) AppleWebKit/537.36 (KHTML, like Gecko) Chrome/122.0.0.0 Safari/537.36" version="24.2.0" etag="f41lShL7v_yFt6BScvV-" type="github">
  <diagram name="Page-1" id="Uljwau8mf9Ja7Tt_UX5q">
    <mxGraphModel>
      <root>
        <mxCell id="0" />
        <mxCell id="1" parent="0" />
      </root>
    </mxGraphModel>
  </diagram>
</mxfile>
